<?xml version="1.0" encoding="UTF-8" standalone="no"?>
<!-- Created with Inkscape (http://www.inkscape.org/) -->
<svg
   xmlns:dc="http://purl.org/dc/elements/1.1/"
   xmlns:cc="http://creativecommons.org/ns#"
   xmlns:rdf="http://www.w3.org/1999/02/22-rdf-syntax-ns#"
   xmlns:svg="http://www.w3.org/2000/svg"
   xmlns="http://www.w3.org/2000/svg"
   xmlns:xlink="http://www.w3.org/1999/xlink"
   xmlns:sodipodi="http://sodipodi.sourceforge.net/DTD/sodipodi-0.dtd"
   xmlns:inkscape="http://www.inkscape.org/namespaces/inkscape"
   id="svg1"
   sodipodi:version="0.32"
   inkscape:version="0.46"
   width="622"
   height="646"
   sodipodi:docbase="/datas/Projs/Cliparts Stocker"
   sodipodi:docname="balloons.svg"
   inkscape:export-filename="/datas/Projs/Cliparts Stocker/balloons.png"
   inkscape:export-xdpi="72.000000"
   inkscape:export-ydpi="72.000000"
   inkscape:output_extension="org.inkscape.output.svg.inkscape"
   version="1.0">
  <defs
     id="defs3">
    <linearGradient
       id="linearGradient12909">
      <stop
         style="stop-color:#f5db94;stop-opacity:1.0000000;"
         offset="0.00000000"
         id="stop12910" />
      <stop
         style="stop-color:#be7900;stop-opacity:1.0000000;"
         offset="1.0000000"
         id="stop12911" />
    </linearGradient>
    <linearGradient
       id="linearGradient10342">
      <stop
         style="stop-color:#67e869;stop-opacity:1.0000000;"
         offset="0.00000000"
         id="stop10343" />
      <stop
         style="stop-color:#1a4c00;stop-opacity:1.0000000;"
         offset="1.0000000"
         id="stop10344" />
    </linearGradient>
    <linearGradient
       id="linearGradient9715">
      <stop
         style="stop-color:#67ff69;stop-opacity:1.0000000;"
         offset="0.00000000"
         id="stop9716" />
      <stop
         style="stop-color:#1a7600;stop-opacity:1.0000000;"
         offset="1.0000000"
         id="stop9717" />
    </linearGradient>
    <linearGradient
       id="linearGradient8463">
      <stop
         style="stop-color:#ffe59e;stop-opacity:1.0000000;"
         offset="0.00000000"
         id="stop8464" />
      <stop
         style="stop-color:#db8e00;stop-opacity:1.0000000;"
         offset="1.0000000"
         id="stop8465" />
    </linearGradient>
    <linearGradient
       id="linearGradient4088">
      <stop
         style="stop-color:#a00000;stop-opacity:1.0000000;"
         offset="0.00000000"
         id="stop4089" />
      <stop
         style="stop-color:#510000;stop-opacity:1.0000000;"
         offset="1.0000000"
         id="stop4090" />
    </linearGradient>
    <linearGradient
       id="linearGradient3462">
      <stop
         style="stop-color:#ff5f5f;stop-opacity:1.0000000;"
         offset="0.00000000"
         id="stop3463" />
      <stop
         style="stop-color:#890000;stop-opacity:1.0000000;"
         offset="1.0000000"
         id="stop3464" />
    </linearGradient>
    <linearGradient
       inkscape:collect="always"
       xlink:href="#linearGradient10342"
       id="linearGradient3257"
       gradientUnits="userSpaceOnUse"
       gradientTransform="scale(0.960626,1.040988)"
       x1="243.82385"
       y1="294.69733"
       x2="234.87283"
       y2="275.74863" />
    <radialGradient
       inkscape:collect="always"
       xlink:href="#linearGradient9715"
       id="radialGradient3259"
       gradientUnits="userSpaceOnUse"
       gradientTransform="scale(0.9254224,1.0805876)"
       cx="243.22121"
       cy="211.65408"
       fx="248.07079"
       fy="207.33389"
       r="222.30843" />
    <linearGradient
       inkscape:collect="always"
       xlink:href="#linearGradient4088"
       id="linearGradient3261"
       gradientUnits="userSpaceOnUse"
       gradientTransform="scale(0.970223,1.030691)"
       x1="353.53152"
       y1="290.55518"
       x2="355.29117"
       y2="273.54422" />
    <radialGradient
       inkscape:collect="always"
       xlink:href="#linearGradient3462"
       id="radialGradient3263"
       gradientUnits="userSpaceOnUse"
       gradientTransform="scale(0.9254224,1.0805876)"
       cx="283.42154"
       cy="200.2068"
       fx="286.42487"
       fy="202.83472"
       r="243.32635" />
    <linearGradient
       inkscape:collect="always"
       xlink:href="#linearGradient12909"
       id="linearGradient3265"
       gradientUnits="userSpaceOnUse"
       gradientTransform="scale(0.980756,1.019622)"
       x1="491.49326"
       y1="313.78809"
       x2="498.71921"
       y2="295.78745" />
    <radialGradient
       inkscape:collect="always"
       xlink:href="#linearGradient8463"
       id="radialGradient3267"
       gradientUnits="userSpaceOnUse"
       gradientTransform="scale(0.9254224,1.0805876)"
       cx="281.15259"
       cy="220.88658"
       fx="281.15259"
       fy="220.88658"
       r="163.65985" />
  </defs>
  <sodipodi:namedview
     showguides="false"
     id="base"
     pagecolor="#ffffff"
     bordercolor="#666666"
     borderopacity="1.0"
     inkscape:pageopacity="0.0"
     inkscape:pageshadow="2"
     inkscape:zoom="1.1738182"
     inkscape:cx="284.11555"
     inkscape:cy="343.75001"
     inkscape:window-width="1680"
     inkscape:window-height="1003"
     showgrid="false"
     inkscape:grid-bbox="false"
     inkscape:grid-points="false"
     inkscape:window-x="0"
     inkscape:window-y="20"
     inkscape:current-layer="svg1" />
  <metadata
     id="metadata4">
    <rdf:RDF>
      <cc:Work
         rdf:about="">
        <dc:format>image/svg+xml</dc:format>
        <dc:type
           rdf:resource="http://purl.org/dc/dcmitype/StillImage" />
        <dc:title>Balloons</dc:title>
        <dc:date>2004-08-30</dc:date>
        <dc:creator>
          <cc:Agent>
            <dc:title>Jean-Victor Balin</dc:title>
          </cc:Agent>
        </dc:creator>
        <dc:description>jean.victor.balin@gmail.com</dc:description>
        <cc:license
           rdf:resource="http://creativecommons.org/licenses/publicdomain/" />
        <dc:language>fr-FR</dc:language>
        <dc:subject>
          <rdf:Bag>
            <rdf:li>balloons</rdf:li>
            <rdf:li>party</rdf:li>
          </rdf:Bag>
        </dc:subject>
      </cc:Work>
      <cc:License
         rdf:about="http://creativecommons.org/licenses/publicdomain/">
        <cc:permits
           rdf:resource="http://creativecommons.org/ns#Reproduction" />
        <cc:permits
           rdf:resource="http://creativecommons.org/ns#Distribution" />
        <cc:permits
           rdf:resource="http://creativecommons.org/ns#DerivativeWorks" />
      </cc:License>
    </rdf:RDF>
  </metadata>
  <g
     id="g3246"
     transform="translate(-29.429902,-21.351662)">
    <path
       id="path10369"
       d="M 235.4375,291.5 C 234.9471,291.53297 234.51469,291.83326 234.3125,292.28125 C 226.25893,309.26328 229.86313,325.54634 238.1875,340 C 246.51187,354.45366 259.53229,367.2493 270.53125,377.8125 C 291.73206,398.06197 292.72021,427.85113 287.3125,455.03125 C 287.31054,455.07289 287.31054,455.11461 287.3125,455.15625 C 283.21773,489.56827 286.06201,529.29238 313.9375,554.28125 C 325.10121,564.58864 336.4631,578.02458 342.65625,592.53125 C 348.8494,607.03792 349.93766,622.48121 340.65625,637.375 C 340.64566,637.38524 340.63524,637.39566 340.625,637.40625 C 338.48609,641.01946 335.85208,644.31675 332.75,647.125 C 332.34944,647.42955 332.15463,647.9338 332.24639,648.42856 C 332.33815,648.92331 332.70082,649.32416 333.18396,649.46482 C 333.6671,649.60548 334.18826,649.46194 334.53125,649.09375 C 337.84593,646.09304 340.67071,642.57923 342.9375,638.75 C 352.70939,623.06912 351.54646,606.54146 345.125,591.5 C 338.70354,576.45854 327.06584,562.7892 315.71875,552.3125 C 288.84849,528.22476 285.90456,489.56855 289.9375,455.5625 C 289.94113,455.53191 289.93386,455.49933 289.9375,455.46875 C 295.41059,427.88219 294.46459,397.00461 272.375,375.90625 C 261.39644,365.36265 248.56364,352.68844 240.5,338.6875 C 232.43636,324.68656 229.07606,309.52188 236.71875,293.40625 C 236.92299,292.98056 236.88667,292.47857 236.62329,292.08671 C 236.3599,291.69484 235.9088,291.47164 235.4375,291.5 z"
       style="fill:#000000;fill-opacity:1;fill-rule:evenodd;stroke:none;stroke-width:2.66440129;stroke-linecap:round;stroke-linejoin:round;stroke-miterlimit:4;stroke-opacity:1" />
    <path
       id="path9092"
       d="M 212.8658,288.10345 C 217.07235,291.33272 218.6529,296.77632 219.18867,301.8355 C 219.60976,304.07664 219.27271,306.33642 219.3109,308.58723 C 219.32305,310.24415 220.25419,312.50853 222.28651,312.07658 C 223.71821,311.69782 224.93875,310.74172 226.14212,309.89508 C 229.20464,307.45779 231.42382,303.69267 235.37705,302.57242 C 238.65578,301.93554 242.26811,301.89894 244.9968,299.70728 C 246.85637,298.38199 246.38546,295.41674 244.1768,294.76099 C 241.89897,293.74615 239.29469,293.40125 237.35478,291.70545 C 232.36882,288.30855 229.26309,282.87347 227.15071,277.35158 C 226.00311,275.32884 222.96495,275.88664 221.81645,277.62813 C 219.12779,280.76621 218.27167,285.4332 214.42189,287.5422 C 213.93303,287.801 213.4084,287.99401 212.8658,288.10345 z"
       style="fill:url(#linearGradient3257);fill-opacity:1;fill-rule:evenodd;stroke:none;stroke-width:1pt;stroke-linecap:butt;stroke-linejoin:miter;stroke-opacity:1" />
    <path
       id="path9093"
       d="M 470.7357,321.40948 C 470.7357,421.73003 401.00744,503.1496 315.09225,503.1496 C 229.17707,503.1496 159.44881,421.73003 159.44881,321.40948 C 159.44881,221.08894 229.17707,139.66937 315.09225,139.66937 C 401.00744,139.66937 470.7357,221.08894 470.7357,321.40948 z"
       style="fill:url(#radialGradient3259);fill-opacity:1;fill-rule:evenodd;stroke:none;stroke-width:1pt;stroke-linecap:butt;stroke-linejoin:miter;stroke-opacity:1"
       transform="matrix(0.598546,-0.416502,0.414663,0.595902,-171.9996,113.9954)" />
    <path
       id="path2211"
       d="M 343.28125,305.5625 C 342.59619,305.5875 342.04191,306.12826 342,306.8125 C 340.66452,322.29119 335.77898,338.49638 333.25,354.71875 C 330.72102,370.94112 330.55089,387.25752 338.90625,402.71875 C 338.92575,402.75087 338.9466,402.78215 338.96875,402.8125 C 349.88074,419.4674 367.38116,428.66365 384,438.34375 C 400.61884,448.02385 416.343,458.13135 424.375,476.34375 C 424.39252,476.3971 424.41339,476.44929 424.4375,476.5 C 437.9336,499.85498 435.79854,527.39918 433.25,553.59375 C 431.44929,574.28762 434.77392,596.94196 450.34375,612.40625 C 459.32428,624.49007 467.21552,638.60311 465.90625,653.8125 C 465.84584,654.546 466.3915,655.18959 467.125,655.25 C 467.8585,655.31041 468.50209,654.76475 468.5625,654.03125 C 469.96177,637.77648 461.62476,623.09039 452.5,610.8125 C 452.45112,610.76698 452.39889,610.72519 452.34375,610.6875 C 437.43495,596.00537 434.13863,574.15734 435.90625,553.84375 C 438.45367,527.66072 440.7429,499.49684 426.8125,475.28125 C 426.7932,475.23748 426.76939,475.19993 426.75,475.15625 C 418.33044,456.1871 401.98913,445.75806 385.34375,436.0625 C 368.66005,426.34461 351.65866,417.30937 341.21875,401.375 C 333.28982,386.64033 333.39009,371.0647 335.875,355.125 C 338.36485,339.15359 343.28705,322.90085 344.65625,307.03125 C 344.69603,306.64737 344.56741,306.2651 344.30365,305.98335 C 344.03989,305.70161 343.66692,305.54808 343.28125,305.5625 z"
       style="fill:#000000;fill-opacity:1;fill-rule:evenodd;stroke:none;stroke-width:2.66440129;stroke-linecap:round;stroke-linejoin:round;stroke-miterlimit:4;stroke-opacity:1" />
    <path
       id="path1553"
       d="M 336.60094,283.42912 C 338.20929,288.48248 336.39739,293.85351 333.94746,298.31224 C 333.01301,300.39234 331.44562,302.05472 330.19135,303.92405 C 329.25494,305.29103 328.72588,307.68154 330.64079,308.4878 C 332.03229,308.99467 333.58024,308.90701 335.05159,308.89941 C 338.95751,308.64807 342.92962,306.8251 346.8144,308.16356 C 349.86944,309.51353 352.85544,311.54678 356.34705,311.30638 C 358.63041,311.28069 359.93756,308.57776 358.49918,306.77796 C 357.20914,304.64392 355.26847,302.87329 354.64475,300.37331 C 352.49237,294.73717 353.04751,288.50199 354.46759,282.76293 C 354.68096,280.44713 351.86855,279.16966 349.93114,279.94312 C 345.93181,280.98323 342.56341,284.32503 338.19879,283.85724 C 337.6497,283.79044 337.10882,283.64922 336.60094,283.42912 z"
       style="fill:url(#linearGradient3261);fill-opacity:1;fill-rule:evenodd;stroke:none;stroke-width:1pt;stroke-linecap:butt;stroke-linejoin:miter;stroke-opacity:1" />
    <path
       id="path930"
       d="M 470.7357,321.40948 C 470.7357,421.73003 401.00744,503.1496 315.09225,503.1496 C 229.17707,503.1496 159.44881,421.73003 159.44881,321.40948 C 159.44881,221.08894 229.17707,139.66937 315.09225,139.66937 C 401.00744,139.66937 470.7357,221.08894 470.7357,321.40948 z"
       style="fill:url(#radialGradient3263);fill-opacity:1;fill-rule:evenodd;stroke:none;stroke-width:1pt;stroke-linecap:butt;stroke-linejoin:miter;stroke-opacity:1"
       transform="matrix(0.729199,0,0,0.725978,120.1401,-79.30998)" />
    <path
       id="path7211"
       d="M 484.65625,308.6875 C 484.2609,308.7309 483.90561,308.94866 483.6875,309.28125 C 465.83681,335.53844 454.95005,370.09816 469.96875,400.53125 C 469.99808,400.59069 470.00172,400.65935 470.03125,400.71875 C 479.24121,429.77488 482.62009,464.41068 462.71875,489.53125 C 462.69723,489.55139 462.67639,489.57223 462.65625,489.59375 C 444.59348,515.62822 442.9001,548.34479 451.46875,577.875 C 458.92045,607.71056 444.7109,636.03355 428.40625,660.5625 C 428.39566,660.57274 428.38524,660.58316 428.375,660.59375 L 425.84375,664.5625 C 425.4468,665.18382 425.62868,666.0093 426.25,666.40625 C 426.87132,666.8032 427.6968,666.62132 428.09375,666 L 430.625,662.03125 C 447.05835,637.30868 461.77143,608.17809 454.03125,577.1875 C 454.03174,577.16667 454.03174,577.14583 454.03125,577.125 C 445.63524,548.18977 447.33289,516.36398 464.84375,491.125 C 485.55689,464.90873 481.87401,429.18845 472.5,399.71875 C 472.47372,399.65388 472.44238,399.59119 472.40625,399.53125 C 457.84384,370.23627 468.34821,336.60796 485.90625,310.78125 C 486.21205,310.35071 486.23471,309.78019 485.964,309.32676 C 485.6933,308.87333 485.18034,308.62258 484.65625,308.6875 z"
       style="fill:#000000;fill-opacity:1;fill-rule:evenodd;stroke:none;stroke-width:2.66440129;stroke-linecap:round;stroke-linejoin:round;stroke-miterlimit:4;stroke-opacity:1" />
    <path
       id="path4713"
       d="M 484.07781,290.88494 C 484.09981,296.18802 480.76328,300.77044 477.09106,304.29141 C 475.57682,305.99642 473.5837,307.11341 471.82739,308.5216 C 470.52474,309.54561 469.30439,311.66815 470.89016,313.01063 C 472.06615,313.91078 473.56937,314.29049 474.97553,314.72365 C 478.7776,315.65298 483.11326,315.10256 486.41928,317.54248 C 488.93016,319.74502 491.17064,322.57883 494.57412,323.39459 C 496.76048,324.05355 498.81676,321.86582 497.98306,319.71799 C 497.39095,317.29565 496.06926,315.02531 496.22245,312.45326 C 495.85581,306.43126 498.25186,300.64813 501.32469,295.59728 C 502.22146,293.45153 499.92039,291.3908 497.84028,291.54887 C 493.71299,291.34418 489.49873,293.5245 485.47426,291.7717 C 484.97033,291.54361 484.49653,291.24696 484.07781,290.88494 z"
       style="fill:url(#linearGradient3265);fill-opacity:1;fill-rule:evenodd;stroke:none;stroke-width:1pt;stroke-linecap:butt;stroke-linejoin:miter;stroke-opacity:1" />
    <path
       id="path4714"
       d="M 470.7357,321.40948 C 470.7357,421.73003 401.00744,503.1496 315.09225,503.1496 C 229.17707,503.1496 159.44881,421.73003 159.44881,321.40948 C 159.44881,221.08894 229.17707,139.66937 315.09225,139.66937 C 401.00744,139.66937 470.7357,221.08894 470.7357,321.40948 z"
       style="fill:url(#radialGradient3267);fill-opacity:1;fill-rule:evenodd;stroke:none;stroke-width:1pt;stroke-linecap:butt;stroke-linejoin:miter;stroke-opacity:1"
       transform="matrix(0.695765,0.21827,-0.217306,0.692692,386.1197,-120.0155)" />
  </g>
</svg>
